<?xml version="1.0" encoding="UTF-8" standalone="no"?>
<svg viewBox="0 0 130 140" version="1.1" xmlns="http://www.w3.org/2000/svg" xmlns:xlink="http://www.w3.org/1999/xlink">
    <!-- Generator: Sketch 41.2 (35397) - http://www.bohemiancoding.com/sketch -->
    <title>icon-</title>
    <desc>Created with Sketch.</desc>
    <defs></defs>
    <g id="Icons" stroke="none" stroke-width="1" fill="none" fill-rule="evenodd">
        <g id="icon-" fill="purple">
            <g id="up-copy-2" transform="translate(64.500000, 70.000000) scale(-1, 1) translate(-64.500000, -70.000000) translate(13.000000, 15.000000)">
                <path d="M6.18936624,50.2056251 C6.07051874,50.3693675 6,50.5706655 6,50.7882903 L6,69.4178953 C6,69.6342658 6.07000634,69.8356705 6.18870366,69.9998529 C6.06985938,70.1635206 6,70.364663 6,70.5821047 L6,89.2117097 C6,89.4280537 6.0706919,89.6294356 6.19055424,89.793607 C6.07118504,89.9572856 6,90.1584507 6,90.3759191 L6,109.005524 C6,109.550177 6.44397185,110 6.99163889,110 L102.008361,110 C102.545943,110 103,109.554758 103,109.005524 L103,90.3759191 C103,89.8312663 102.556028,89.3814433 102.008361,89.3814433 L78.7355513,89.3814433 C78.7450526,89.3262858 78.75,89.2695749 78.75,89.2117097 L78.75,70.5821047 C78.75,70.0374519 78.3019574,69.5876289 77.7492688,69.5876289 L54.4854602,69.5876289 C54.4950143,69.5324714 54.5,69.4757605 54.5,69.4178953 L54.5,50.7882903 C54.5,50.2436375 54.0564111,49.7938144 53.5092165,49.7938144 L30.2356794,49.7938144 C30.2450982,49.7386569 30.25,49.681946 30.25,49.6240809 L30.25,30.9944758 C30.25,30.449823 29.8041479,30 29.2541615,30 L6.99583849,30 C6.441605,30 6,30.445242 6,30.9944758 L6,49.6240809 C6,49.8402698 6.07024549,50.0415181 6.18936624,50.2056251 Z" id="stairs" transform="translate(54.500000, 70.000000) scale(-1, 1) translate(-54.500000, -70.000000) "></path>
                <path d="M21.0659265,12.5806452 L62.5361744,54.050893 C62.9263449,54.4410636 62.920369,55.079631 62.533785,55.466215 L55.466215,62.533785 C55.0747248,62.9252752 54.4338112,62.9190925 54.050893,62.5361744 L12.5806452,21.0659265 L12.5806452,37.9967579 C12.5806452,38.5508332 12.1328933,39 11.5723845,39 L1.00826064,39 C0.451413664,39 0,38.5620117 0,37.9967579 L0,1.00324215 C0,0.727031295 0.111270798,0.476891256 0.292311844,0.295470182 C0.471309827,0.112177312 0.721463096,-4.73941071e-14 1.00324215,-4.74113611e-14 L37.9967579,-4.96765606e-14 C38.5508332,-4.9710488e-14 39,0.447751822 39,1.00826064 L39,11.5723845 C39,12.1292315 38.5620117,12.5806452 37.9967579,12.5806452 L21.0659265,12.5806452 Z" id="arrow" transform="translate(31.413136, 31.412692) scale(1, -1) translate(-31.413136, -31.412692) "></path>
            </g>
        </g>
    </g>
</svg>
