<?xml version="1.0" encoding="iso-8859-1"?>
<!-- Generator: Adobe Illustrator 18.1.1, SVG Export Plug-In . SVG Version: 6.00 Build 0)  -->
<svg version="1.1" id="Capa_1" xmlns="http://www.w3.org/2000/svg" xmlns:xlink="http://www.w3.org/1999/xlink" x="0px" y="0px"
	 viewBox="0 0 18.087 18.087" style="enable-background:new 0 0 18.087 18.087;" xml:space="preserve">
<g>
	<path style="fill:#24d824;" d="M17.859,4.672c-0.233-0.688-0.486-1.129-1.062-1.623c0,0-0.369-0.416-0.869-0.783
		c-0.696-0.516-1.726-0.703-2.689-0.717h-0.07c-1.486,0-2.837,0.695-3.621,1.357C9.229,2.588,8.225,1.668,6.873,1.213
		C6.322,1.029,5.761,0.936,5.205,0.936c-0.61,0-1.217,0.113-1.803,0.336C2.491,1.618,1.733,2.11,1.264,2.659
		C0.789,3.235,0.546,3.786,0.306,4.487C-0.15,5.817-0.097,7.089,0.47,8.479c0.138,0.34,0.327,0.705,0.557,1.088H1.026l0.021,0.035
		c0.017,0.027,0.032,0.055,0.05,0.084h0.004l0.23,0.359H1.326c0.024,0.037,0.047,0.07,0.072,0.107
		c0.005,0.008,0.012,0.016,0.017,0.023l0.007,0.01c0.212,0.311,0.449,0.635,0.714,0.967c0.355,0.453,0.804,0.902,1.239,1.338
		c0.175,0.176,0.347,0.348,0.512,0.518c1.075,1.119,2.306,2.223,3.378,3.033c0.544,0.41,1.299,0.934,1.801,1.094l0.054,0.016
		l0.053-0.021c0.077-0.029,0.163-0.072,0.257-0.121c0.607-0.322,1.502-0.984,2.52-1.863c0.75-0.65,1.516-1.373,2.212-2.096
		c0.175-0.182,0.358-0.363,0.544-0.547c0.43-0.43,0.876-0.875,1.228-1.313c0.285-0.354,0.537-0.689,0.758-1.012l0.004,0.008
		l0.399-0.619l-0.011,0.002c0.253-0.416,0.445-0.803,0.568-1.152C18.152,7.01,18.221,5.751,17.859,4.672z M13.666,10.462
		c0,0.072-0.059,0.129-0.128,0.129h-2.833v2.832c0,0.07-0.057,0.127-0.127,0.127H8.32c-0.071,0-0.128-0.057-0.128-0.127v-2.832
		H5.359c-0.07,0-0.127-0.057-0.127-0.129V8.204c0-0.07,0.057-0.127,0.127-0.127h2.833V5.243c0-0.07,0.057-0.129,0.128-0.129h2.258
		c0.07,0,0.127,0.059,0.127,0.129v2.834h2.833c0.07,0,0.128,0.057,0.128,0.127V10.462z"/>
</g>
<g>
</g>
<g>
</g>
<g>
</g>
<g>
</g>
<g>
</g>
<g>
</g>
<g>
</g>
<g>
</g>
<g>
</g>
<g>
</g>
<g>
</g>
<g>
</g>
<g>
</g>
<g>
</g>
<g>
</g>
</svg>
