<?xml version="1.0" encoding="UTF-8" standalone="no"?>
<svg viewBox="0 0 130 140" version="1.1" xmlns="http://www.w3.org/2000/svg" xmlns:xlink="http://www.w3.org/1999/xlink">
    <!-- Generator: Sketch 41.2 (35397) - http://www.bohemiancoding.com/sketch -->
    <title>icon-</title>
    <desc>Created with Sketch.</desc>
    <defs></defs>
    <g id="Icons" stroke="none" stroke-width="1" fill="none" fill-rule="evenodd">
        <g id="icon-" fill="magenta">
            <g id="up-copy-4" transform="translate(11.000000, 16.000000)">
                <path d="M11.1893662,48.2056251 C11.0705187,48.3693675 11,48.5706655 11,48.7882903 L11,67.4178953 C11,67.6342658 11.0700063,67.8356705 11.1887037,67.9998529 C11.0698594,68.1635206 11,68.364663 11,68.5821047 L11,87.2117097 C11,87.4280537 11.0706919,87.6294356 11.1905542,87.793607 C11.071185,87.9572856 11,88.1584507 11,88.3759191 L11,107.005524 C11,107.550177 11.4439719,108 11.9916389,108 L107.008361,108 C107.545943,108 108,107.554758 108,107.005524 L108,88.3759191 C108,87.8312663 107.556028,87.3814433 107.008361,87.3814433 L83.7355513,87.3814433 C83.7450526,87.3262858 83.75,87.2695749 83.75,87.2117097 L83.75,68.5821047 C83.75,68.0374519 83.3019574,67.5876289 82.7492688,67.5876289 L59.4854602,67.5876289 C59.4950143,67.5324714 59.5,67.4757605 59.5,67.4178953 L59.5,48.7882903 C59.5,48.2436375 59.0564111,47.7938144 58.5092165,47.7938144 L35.2356794,47.7938144 C35.2450982,47.7386569 35.25,47.681946 35.25,47.6240809 L35.25,28.9944758 C35.25,28.449823 34.8041479,28 34.2541615,28 L11.9958385,28 C11.441605,28 11,28.445242 11,28.9944758 L11,47.6240809 C11,47.8402698 11.0702455,48.0415181 11.1893662,48.2056251 Z" id="stairs" transform="translate(59.500000, 68.000000) scale(-1, 1) translate(-59.500000, -68.000000) "></path>
                <path d="M21.0659265,12.5806452 L72.0313398,63.5460584 C72.4241804,63.9388991 72.420369,64.579631 72.033785,64.966215 L64.966215,72.033785 C64.5747248,72.4252752 63.940977,72.4262584 63.5460584,72.0313398 L12.5806452,21.0659265 L12.5806452,37.9967579 C12.5806452,38.5508332 12.1328933,39 11.5723845,39 L1.00826064,39 C0.451413664,39 0,38.5620117 0,37.9967579 L0,1.00324215 C0,0.727031295 0.111270798,0.476891256 0.292311844,0.295470182 C0.471309827,0.112177312 0.721463096,3.2320628e-15 1.00324215,3.21480881e-15 L37.9967579,9.49609284e-16 C38.5508332,9.15681955e-16 39,0.447751822 39,1.00826064 L39,11.5723845 C39,12.1292315 38.5620117,12.5806452 37.9967579,12.5806452 L21.0659265,12.5806452 Z" id="arrow" transform="translate(36.162423, 36.163733) scale(-1, 1) translate(-36.162423, -36.163733) "></path>
            </g>
        </g>
    </g>
</svg>
