<?xml version="1.0" encoding="iso-8859-1"?>
<!-- Generator: Adobe Illustrator 18.0.0, SVG Export Plug-In . SVG Version: 6.00 Build 0)  -->
<!DOCTYPE svg PUBLIC "-//W3C//DTD SVG 1.1//EN" "http://www.w3.org/Graphics/SVG/1.1/DTD/svg11.dtd">
<svg version="1.1" id="Capa_1" xmlns="http://www.w3.org/2000/svg" xmlns:xlink="http://www.w3.org/1999/xlink" x="0px" y="0px"
	 viewBox="0 0 57 57" style="enable-background:new 0 0 57 57;" xml:space="preserve">
<path style="fill:blue;" d="M57,1.353l-31.761,31.47c-0.195,0.193-0.449,0.29-0.704,0.29c-0.257,0-0.515-0.099-0.71-0.296
	c-0.389-0.393-0.386-1.026,0.007-1.415L55.524,0h-7.361L18.171,29.992l-4.076-4.076l-1.345-4.034c-0.2-0.602-0.738-0.991-1.37-0.991
	c-0.767,0-1.389,0.575-1.448,1.337l-0.572,7.438l5.982,5.982L4.992,46H2.274C1.02,46,0,47.02,0,48.274v6.452
	C0,55.98,1.02,57,2.274,57h6.452C9.98,57,11,55.98,11,54.726v-3.421l10-10l6.021,6.021l6.866-1.145
	c0.685-0.113,1.182-0.677,1.21-1.37c0.028-0.693-0.422-1.295-1.096-1.464l-3.297-0.824l-4.043-4.043L57,8.489V1.353z M11,48.477
	v-0.203C11,47.02,9.98,46,8.726,46H7.82l8.938-8.938l1.417,1.417l1.411,1.411L11,48.477z"/>
<g>
</g>
<g>
</g>
<g>
</g>
<g>
</g>
<g>
</g>
<g>
</g>
<g>
</g>
<g>
</g>
<g>
</g>
<g>
</g>
<g>
</g>
<g>
</g>
<g>
</g>
<g>
</g>
<g>
</g>
</svg>
